<?xml version="1.0" encoding="UTF-8" standalone="no"?>
<!-- Created with Inkscape (http://www.inkscape.org/) -->

<svg width="254.99997" height="255.00009" viewBox="0 0 67.46874 67.468774" version="1.1" id="svg1" xml:space="preserve"
  sodipodi:docname="iconsSocialWithCurevedGradients.svg" xmlns:inkscape="http://www.inkscape.org/namespaces/inkscape"
  xmlns:sodipodi="http://sodipodi.sourceforge.net/DTD/sodipodi-0.dtd" xmlns="http://www.w3.org/2000/svg"
  xmlns:svg="http://www.w3.org/2000/svg">
  <sodipodi:namedview id="namedview1" pagecolor="#ffffff" bordercolor="#000000" borderopacity="0.25"
    inkscape:showpageshadow="2" inkscape:pageopacity="0.0" inkscape:pagecheckerboard="0" inkscape:deskcolor="#d1d1d1"
    inkscape:document-units="px" inkscape:zoom="0.39123542" inkscape:cx="293.94066" inkscape:cy="877.98798"
    inkscape:window-width="1366" inkscape:window-height="713" inkscape:window-x="-8" inkscape:window-y="-8"
    inkscape:window-maximized="1" inkscape:current-layer="layer1" />
  <defs id="defs1" />
  <g inkscape:label="Layer 1" inkscape:groupmode="layer" id="layer1" transform="translate(-37.531258,-58.721031)">
    <g id="g37" transform="translate(318.14008,-130.07032)">
      <rect
        style="opacity:0.3;fill:hsl(318, 89%, 50%);fill-opacity:1;stroke:#008080;stroke-width:0;stroke-linecap:round;stroke-miterlimit:1000;stroke-dasharray:none;paint-order:stroke fill markers"
        id="rect1-5" width="67.46875" height="67.46875" x="-280.60883" y="188.79135" ry="17.197916" rx="17.197916" />
      <path id="path6-9"
        style="opacity:0.3;fill:hsl(318, 89%, 50%);fill-opacity:1;stroke:#008080;stroke-width:0;stroke-linecap:round;stroke-miterlimit:1000;paint-order:stroke fill markers"
        d="m -263.41091,188.79137 c -9.52762,0 -17.19791,7.67029 -17.19791,17.19791 v 33.07292 c 0,0.0297 0.004,0.0582 0.005,0.0879 0.095,-17.50702 14.21517,-31.57327 31.74535,-31.57327 h 19.40398 a 9.3927088,9.3927088 0 0 0 9.39323,-9.39271 9.3927088,9.3927088 0 0 0 -7.04092,-9.08058 c -0.83411,-0.15774 -1.69184,-0.2451 -2.5647,-0.27854 -0.22435,-0.009 -0.44423,-0.0336 -0.67076,-0.0336 z m 31.91485,0.27853 a 9.3927088,9.3927088 0 0 0 -0.39739,0.0941 9.3927088,9.3927088 0 0 1 0.39739,-0.0941 z m -2.09651,0.7214 a 9.3927088,9.3927088 0 0 0 -0.22273,0.12609 9.3927088,9.3927088 0 0 1 0.22273,-0.12609 z m -1.60507,1.02061 a 9.3927088,9.3927088 0 0 0 -0.29094,0.22273 9.3927088,9.3927088 0 0 1 0.29094,-0.22273 z m -1.55339,1.50999 a 9.3927088,9.3927088 0 0 0 -0.21498,0.29197 9.3927088,9.3927088 0 0 1 0.21498,-0.29197 z m -1.08418,1.69395 a 9.3927088,9.3927088 0 0 0 -0.12195,0.22479 9.3927088,9.3927088 0 0 1 0.12195,-0.22479 z m -0.71623,1.93528 a 9.3927088,9.3927088 0 0 0 -0.0868,0.40101 9.3927088,9.3927088 0 0 1 0.0868,-0.40101 z m -0.0863,4.09588 a 9.3927088,9.3927088 0 0 0 0.0889,0.40669 9.3927088,9.3927088 0 0 1 -0.0889,-0.40669 z m 0.6966,2.14405 a 9.3927088,9.3927088 0 0 0 0.12505,0.22945 9.3927088,9.3927088 0 0 1 -0.12505,-0.22945 z m 1.01802,1.65055 a 9.3927088,9.3927088 0 0 0 0.22014,0.29404 9.3927088,9.3927088 0 0 1 -0.22014,-0.29404 z m 1.51671,1.5906 a 9.3927088,9.3927088 0 0 0 0.29558,0.22117 9.3927088,9.3927088 0 0 1 -0.29558,-0.22117 z m 1.71462,1.11311 a 9.3927088,9.3927088 0 0 0 0.22996,0.12506 9.3927088,9.3927088 0 0 1 -0.22996,-0.12506 z m 1.96835,0.73329 a 9.3927088,9.3927088 0 0 0 0.40515,0.0879 9.3927088,9.3927088 0 0 1 -0.40515,-0.0879 z" />
      <path id="path3-2"
        style="opacity:0.3;fill:hsl(318, 89%, 50%);fill-opacity:1;stroke:#008080;stroke-width:0;stroke-linecap:round;stroke-miterlimit:1000;paint-order:stroke fill markers"
        d="m -263.4109,188.79137 c -9.52763,0 -17.19792,7.67029 -17.19792,17.19792 v 33.07292 c 0,9.52762 7.67029,17.19791 17.19792,17.19791 h 33.07291 c 0.074,0 0.14534,-0.01 0.21911,-0.0108 a 16.867187,16.867187 0 0 1 -16.75557,-16.85633 16.867187,16.867187 0 0 1 16.86719,-16.86719 16.867187,16.867187 0 0 0 16.85633,-16.75557 c -0.11694,-9.35088 -7.61707,-16.85101 -16.96795,-16.96795 -0.0738,-9.3e-4 -0.14511,-0.0109 -0.21911,-0.0109 z m 30.36558,0.3173 a 16.867187,16.867187 0 0 0 -0.82889,0.185 16.867187,16.867187 0 0 1 0.82889,-0.185 z m -2.99775,0.85576 a 16.867187,16.867187 0 0 0 -0.70641,0.26717 16.867187,16.867187 0 0 1 0.70641,-0.26717 z m -3.28093,1.65778 a 16.867187,16.867187 0 0 0 -0.43202,0.32556 16.867187,16.867187 0 0 1 0.43202,-0.32556 z m -2.31097,1.87895 a 16.867187,16.867187 0 0 0 -0.60979,0.61392 16.867187,16.867187 0 0 1 0.60979,-0.61392 z m -2.15078,2.50114 a 16.867187,16.867187 0 0 0 -0.32401,0.4346 16.867187,16.867187 0 0 1 0.32401,-0.4346 z m -1.70015,3.01946 a 16.867187,16.867187 0 0 0 -0.26045,0.70073 16.867187,16.867187 0 0 1 0.26045,-0.70073 z m -0.92036,2.88148 a 16.867187,16.867187 0 0 0 -0.17932,0.82578 16.867187,16.867187 0 0 1 0.17932,-0.82578 z m -0.17828,6.69984 a 16.867187,16.867187 0 0 0 0.17983,0.82631 16.867187,16.867187 0 0 1 -0.17983,-0.82631 z m 0.84439,3.01739 a 16.867187,16.867187 0 0 0 0.26355,0.7059 16.867187,16.867187 0 0 1 -0.26355,-0.7059 z m 1.65106,3.30161 a 16.867187,16.867187 0 0 0 0.31988,0.42736 16.867187,16.867187 0 0 1 -0.31988,-0.42736 z m 1.87844,2.32647 a 16.867187,16.867187 0 0 0 0.6134,0.6134 16.867187,16.867187 0 0 1 -0.6134,-0.6134 z m 2.51251,2.17196 a 16.867187,16.867187 0 0 0 0.42736,0.31988 16.867187,16.867187 0 0 1 -0.42736,-0.31988 z m 3.02307,1.70739 a 16.867187,16.867187 0 0 0 0.7059,0.26355 16.867187,16.867187 0 0 1 -0.7059,-0.26355 z m 2.89698,0.92811 a 16.867187,16.867187 0 0 0 0.82631,0.17983 16.867187,16.867187 0 0 1 -0.82631,-0.17983 z" />
      <path id="path35"
        style="opacity:1;fill:#f5f5f5;fill-opacity:1;stroke:#008080;stroke-width:0;stroke-linecap:round;stroke-miterlimit:1000;paint-order:stroke fill markers"
        d="m -242.55979,201.03227 c -5.87265,1.06234 -10.41793,5.16695 -11.40861,10.34511 -0.13189,0.68942 -0.21704,1.39321 -0.21704,2.11615 v 8.40982 0.008 0.10646 h -6.85746 c -0.9942,0 -1.79473,0.87969 -1.79473,1.97249 v 6.4642 c 0,0.65457 0.29084,1.2294 0.73484,1.58802 0.0516,0.0417 0.10787,0.0764 0.1633,0.11213 0.26401,0.17002 0.56708,0.27333 0.89659,0.27234 l 6.85746,-0.0233 v 11.69438 c 0,5.73099 4.31281,10.55468 10.28154,12.16205 v -23.99802 -0.38034 h 8.73229 l -0.0295,-0.03 v -5.2e-4 c 0.42347,-0.34504 0.7327,-0.89243 0.95085,-1.51102 l 2.10064,-5.9557 c 0.36478,-1.03444 -0.80051,-2.48099 -1.79472,-2.48099 h -8.19691 l -0.032,-0.0527 c -0.99419,0.003 -1.79473,-0.8797 -1.79473,-1.97249 v -6.4642 c 0,-1.0928 0.80053,-1.97249 1.79473,-1.97249 h 7.28482 c 0.99419,0.003 1.79472,-0.87968 1.79472,-1.97249 v -6.46421 c 0,-1.0928 -0.80052,-1.97249 -1.79472,-1.97249 z" />
    </g>
  </g>
</svg>