<?xml version="1.0" encoding="UTF-8" standalone="no"?>
<!-- Created with Inkscape (http://www.inkscape.org/) -->

<svg width="255" height="255.00006" viewBox="0 0 67.468748 67.468766" version="1.1" id="svg1" xml:space="preserve"
  sodipodi:docname="iconsSocialWithCurevedGradients.svg" xmlns:inkscape="http://www.inkscape.org/namespaces/inkscape"
  xmlns:sodipodi="http://sodipodi.sourceforge.net/DTD/sodipodi-0.dtd" xmlns="http://www.w3.org/2000/svg"
  xmlns:svg="http://www.w3.org/2000/svg">
  <sodipodi:namedview id="namedview1" pagecolor="#ffffff" bordercolor="#000000" borderopacity="0.25"
    inkscape:showpageshadow="2" inkscape:pageopacity="0.0" inkscape:pagecheckerboard="0" inkscape:deskcolor="#d1d1d1"
    inkscape:document-units="px" inkscape:zoom="0.39123542" inkscape:cx="293.94066" inkscape:cy="877.98798"
    inkscape:window-width="1366" inkscape:window-height="713" inkscape:window-x="-8" inkscape:window-y="-8"
    inkscape:window-maximized="1" inkscape:current-layer="layer1" />
  <defs id="defs1" />
  <g inkscape:label="Layer 1" inkscape:groupmode="layer" id="layer1" transform="translate(-125.0869,-58.721031)">
    <g id="g41">
      <g id="g38" style="fill:hsl(318, 89%, 50%)" transform="translate(105.20394,-307.64103)">
        <rect
          style="opacity:0.3;fill:hsl(318, 89%, 50%);stroke:#008080;stroke-width:0;stroke-linecap:round;stroke-miterlimit:1000;stroke-dasharray:none;paint-order:stroke fill markers"
          id="rect1" width="67.46875" height="67.46875" x="19.882965" y="366.36206" ry="17.197916" rx="17.197916" />
        <path id="path6"
          style="opacity:0.3;fill:hsl(318, 89%, 50%);stroke:#008080;stroke-width:0;stroke-linecap:round;stroke-miterlimit:1000;paint-order:stroke fill markers"
          d="m 37.08088,366.36207 c -9.527626,0 -17.197916,7.67029 -17.197916,17.19791 v 33.07292 c 0,0.0297 0.0044,0.0582 0.0046,0.0879 0.09501,-17.50702 14.21517,-31.57327 31.745349,-31.57327 h 19.403983 a 9.3927088,9.3927088 0 0 0 9.393225,-9.39271 9.3927088,9.3927088 0 0 0 -7.040913,-9.08058 c -0.834111,-0.15774 -1.691839,-0.2451 -2.564702,-0.27854 -0.224353,-0.009 -0.444228,-0.0336 -0.67076,-0.0336 z m 31.914847,0.27853 a 9.3927088,9.3927088 0 0 0 -0.397391,0.0941 9.3927088,9.3927088 0 0 1 0.397391,-0.0941 z m -2.096512,0.7214 a 9.3927088,9.3927088 0 0 0 -0.222726,0.12609 9.3927088,9.3927088 0 0 1 0.222726,-0.12609 z m -1.60507,1.02061 a 9.3927088,9.3927088 0 0 0 -0.290939,0.22273 9.3927088,9.3927088 0 0 1 0.290939,-0.22273 z m -1.553394,1.50999 a 9.3927088,9.3927088 0 0 0 -0.214974,0.29197 9.3927088,9.3927088 0 0 1 0.214974,-0.29197 z m -1.084171,1.69395 a 9.3927088,9.3927088 0 0 0 -0.121957,0.22479 9.3927088,9.3927088 0 0 1 0.121957,-0.22479 z m -0.716236,1.93528 a 9.3927088,9.3927088 0 0 0 -0.08682,0.40101 9.3927088,9.3927088 0 0 1 0.08682,-0.40101 z m -0.0863,4.09588 a 9.3927088,9.3927088 0 0 0 0.08888,0.40669 9.3927088,9.3927088 0 0 1 -0.08888,-0.40669 z m 0.696598,2.14405 a 9.3927088,9.3927088 0 0 0 0.125057,0.22945 9.3927088,9.3927088 0 0 1 -0.125057,-0.22945 z m 1.018026,1.65055 a 9.3927088,9.3927088 0 0 0 0.220141,0.29404 9.3927088,9.3927088 0 0 1 -0.220141,-0.29404 z m 1.516703,1.5906 a 9.3927088,9.3927088 0 0 0 0.295589,0.22117 9.3927088,9.3927088 0 0 1 -0.295589,-0.22117 z m 1.714624,1.11311 a 9.3927088,9.3927088 0 0 0 0.22996,0.12506 9.3927088,9.3927088 0 0 1 -0.22996,-0.12506 z m 1.968355,0.73329 a 9.3927088,9.3927088 0 0 0 0.405143,0.0879 9.3927088,9.3927088 0 0 1 -0.405143,-0.0879 z" />
        <path id="path3"
          style="opacity:0.3;fill:hsl(318, 89%, 50%);stroke:#008080;stroke-width:0;stroke-linecap:round;stroke-miterlimit:1000;paint-order:stroke fill markers"
          d="m 37.080881,366.36207 c -9.527627,0 -17.197917,7.67029 -17.197917,17.19792 v 33.07292 c 0,9.52762 7.67029,17.19791 17.197917,17.19791 h 33.072916 c 0.074,0 0.14534,-0.01 0.21911,-0.0108 a 16.867187,16.867187 0 0 1 -16.75557,-16.85633 16.867187,16.867187 0 0 1 16.86719,-16.86719 16.867187,16.867187 0 0 0 16.85633,-16.75557 c -0.11694,-9.35088 -7.61707,-16.85101 -16.96795,-16.96795 -0.0738,-9.3e-4 -0.14511,-0.0109 -0.21911,-0.0109 z m 30.365586,0.3173 a 16.867187,16.867187 0 0 0 -0.82889,0.185 16.867187,16.867187 0 0 1 0.82889,-0.185 z m -2.99775,0.85576 a 16.867187,16.867187 0 0 0 -0.70641,0.26717 16.867187,16.867187 0 0 1 0.70641,-0.26717 z m -3.28093,1.65778 a 16.867187,16.867187 0 0 0 -0.43202,0.32556 16.867187,16.867187 0 0 1 0.43202,-0.32556 z m -2.31097,1.87895 a 16.867187,16.867187 0 0 0 -0.60979,0.61392 16.867187,16.867187 0 0 1 0.60979,-0.61392 z m -2.15078,2.50114 a 16.867187,16.867187 0 0 0 -0.32401,0.4346 16.867187,16.867187 0 0 1 0.32401,-0.4346 z m -1.70015,3.01946 a 16.867187,16.867187 0 0 0 -0.26045,0.70073 16.867187,16.867187 0 0 1 0.26045,-0.70073 z m -0.92036,2.88148 a 16.867187,16.867187 0 0 0 -0.17932,0.82578 16.867187,16.867187 0 0 1 0.17932,-0.82578 z m -0.17828,6.69984 a 16.867187,16.867187 0 0 0 0.17983,0.82631 16.867187,16.867187 0 0 1 -0.17983,-0.82631 z m 0.84439,3.01739 a 16.867187,16.867187 0 0 0 0.26355,0.7059 16.867187,16.867187 0 0 1 -0.26355,-0.7059 z m 1.65106,3.30161 a 16.867187,16.867187 0 0 0 0.31988,0.42736 16.867187,16.867187 0 0 1 -0.31988,-0.42736 z m 1.87844,2.32647 a 16.867187,16.867187 0 0 0 0.6134,0.6134 16.867187,16.867187 0 0 1 -0.6134,-0.6134 z m 2.51251,2.17196 a 16.867187,16.867187 0 0 0 0.42736,0.31988 16.867187,16.867187 0 0 1 -0.42736,-0.31988 z m 3.02307,1.70739 a 16.867187,16.867187 0 0 0 0.7059,0.26355 16.867187,16.867187 0 0 1 -0.7059,-0.26355 z m 2.89698,0.92811 a 16.867187,16.867187 0 0 0 0.82631,0.17983 16.867187,16.867187 0 0 1 -0.82631,-0.17983 z" />
      </g>
      <path
        d="m 183.06326,116.69739 h -9.69679 v -16.966964 c 0,-4.65446 -2.0533,-7.25078 -5.73566,-7.25078 -4.0072,0 -6.38534,2.70541 -6.38534,7.25078 v 16.966964 h -9.69679 v -31.514574 h 9.69679 v 3.54417 c 0,0 3.04237,-5.33808 9.89801,-5.33808 6.85805,0 11.91978,4.18416 11.91978,12.8434 z m -42.56407,-36.554484 c -3.27025,0 -5.91989,-2.67148 -5.91989,-5.96596 0,-3.29205 2.64964,-5.96352 5.91989,-5.96352 3.26782,0 5.91747,2.67147 5.91747,5.96352 0.002,3.29448 -2.64965,5.96596 -5.91747,5.96596 z m -5.91989,36.554484 h 12.12099 v -31.514574 h -12.12099 z"
        id="linkedin-[#161]" style="fill:#ffffff;fill-rule:evenodd;stroke:none;stroke-width:2.42419" />
    </g>
  </g>
</svg>